<svg width="153" height="40" viewBox="0 0 153 40" fill="none" xmlns="http://www.w3.org/2000/svg">
<path d="M30.0819 37.3801C30.0195 37.3801 29.9883 37.3178 29.9883 37.193C29.9883 36.9123 30.1131 36.7407 30.3626 36.6784C30.7368 36.117 30.924 35.1189 30.924 33.6842C30.924 32.1559 30.5965 29.5673 29.9415 25.9181C29.4737 23.2047 29.2398 20.46 29.2398 17.6842C29.2398 15.2203 29.5517 12.616 30.1754 9.87135C31.0488 6.0039 32.3743 4.07018 34.152 4.07018C34.2144 4.07018 34.2456 4.10137 34.2456 4.16374C34.2456 4.25731 34.1676 4.35088 34.0117 4.44445C32.4834 5.22417 31.7193 7.90643 31.7193 12.4912C31.7193 14.1754 31.8284 16.1404 32.0468 18.386C32.2651 20.6316 32.5926 23.1579 33.0292 25.9649C33.1228 26.5575 33.1696 27.1813 33.1696 27.8363C33.1696 31.2047 32.4366 34.0429 30.9708 36.3509C32.4678 35.384 35.1033 31.7505 38.8772 25.4503C39.9688 23.6102 40.9045 22.0351 41.6842 20.7251C42.4951 19.4152 43.1657 18.3704 43.6959 17.5906C45.536 14.6901 47.3138 12.1637 49.0292 10.0117C49.5594 8.04678 49.8558 7.06433 49.9181 7.06433C50.0117 7.06433 50.0585 7.20468 50.0585 7.48538C50.0585 7.54773 50.0429 7.70373 50.0117 7.95322C49.9805 8.20271 49.9337 8.54583 49.8713 8.98246C51.6803 6.83041 53.5673 4.95907 55.5322 3.36842C58.308 1.12281 60.6004 0 62.4094 0C63.5945 0 64.5302 0.436646 65.2164 1.30994C65.809 2.08966 66.1053 3.10331 66.1053 4.35088C66.1053 4.5692 66.0897 4.83431 66.0585 5.1462C66.0273 5.45809 65.9805 5.81676 65.9181 6.22222C65.731 7.28268 65.5283 7.82844 65.3099 7.85965C65.2787 7.82844 65.2632 7.78165 65.2632 7.7193C65.2632 7.50095 65.3412 7.11111 65.4971 6.54971C65.653 5.98831 65.731 5.55165 65.731 5.23977C65.731 3.05653 64.577 1.96491 62.269 1.96491C58.6822 1.96491 54.4561 4.94347 49.5906 10.9006C48.998 14.6433 48.5614 17.8558 48.2807 20.538C48 23.1891 47.8596 25.2944 47.8596 26.8538C47.8596 31.7817 48.7798 34.2456 50.6199 34.2456C52.0857 34.2456 53.9883 32.4211 56.3275 28.7719L57.4035 27.0409C57.5283 26.8226 57.6374 26.7135 57.731 26.7135C57.7934 26.7758 57.8246 26.8226 57.8246 26.8538C57.8246 26.9474 57.7778 27.0722 57.6842 27.2281C55.0331 32.3119 52.5536 34.8538 50.2456 34.8538C47.002 34.8538 45.3801 32.5302 45.3801 27.883C45.3801 24.6394 46.3626 19.4932 48.3275 12.4444C47.4854 13.536 46.5653 14.8148 45.5672 16.2807C44.6004 17.7154 43.5556 19.3216 42.4328 21.0994C38.9395 26.5575 37.0682 29.5049 36.8187 29.9415C34.9162 32.7798 33.3255 34.7914 32.0468 35.9766C31.0799 36.9123 30.4249 37.3801 30.0819 37.3801ZM4.07018 40C2.8538 40 1.87135 39.6413 1.12281 38.924C0.374269 38.2378 0 37.3021 0 36.117C0 34.6822 0.51462 33.2944 1.54386 31.9532C1.63743 31.8284 1.7154 31.7661 1.77778 31.7661C1.87135 31.7661 1.91813 31.8441 1.91813 32C1.91813 32 1.87135 32.1091 1.77778 32.3275C1.68421 32.5146 1.55945 32.8109 1.40351 33.2164C1.09162 33.9649 0.935673 34.6979 0.935673 35.4152C0.935673 36.4444 1.23197 37.3333 1.82456 38.0819C2.44834 38.8616 3.27485 39.2515 4.30409 39.2515C8.20271 39.2515 12.117 37.3333 16.0468 33.4971C19.4776 30.0974 22.3938 25.8401 24.7953 20.7251C27.0721 15.8597 28.2105 11.5711 28.2105 7.85965C28.2105 7.70373 28.2105 7.56338 28.2105 7.4386C28.2105 7.28268 28.195 7.14233 28.1637 7.01754C27.6959 7.23589 27.1189 7.40738 26.4327 7.53216C25.8713 11.4308 24.6394 15.4698 22.7368 19.6491C23.1735 19.3996 23.5322 19.2749 23.8129 19.2749C24.0936 19.2749 24.2339 19.4152 24.2339 19.6959C24.2339 20.3821 23.7973 21.1774 22.924 22.0819C22.0819 22.9863 21.3178 23.5945 20.6316 23.9064C16.7018 31.0488 12.6316 35.5711 8.42105 37.4737C7.39181 37.9727 6.42495 38.2222 5.52047 38.2222C5.17739 38.2222 5.00585 38.0974 5.00585 37.848C5.00585 37.6296 5.1462 37.5049 5.4269 37.4737C5.67641 37.4425 6.0039 37.3801 6.40936 37.2865C6.81482 37.193 7.26703 37.0838 7.76608 36.9591C10.1365 36.0234 12.538 34.1365 14.9708 31.2982C15.9376 30.1754 16.8577 28.9903 17.731 27.7427C18.6043 26.464 19.4308 25.1072 20.2105 23.6725C19.7427 22.8304 19.5088 21.9571 19.5088 21.0526C19.5088 20.5848 19.6023 20.0857 19.7895 19.5556C19.9766 18.9942 20.2729 18.7135 20.6784 18.7135C21.2086 18.7135 21.5828 19.2436 21.8012 20.3041L21.9415 20.2573C23.8441 16.0468 25.1072 11.8518 25.731 7.67252C25.2632 7.73487 24.5302 7.84408 23.5322 8C22.5341 8.12478 21.2553 8.26513 19.6959 8.42105C17.7622 8.6394 16.1091 8.84211 14.7368 9.02924C13.3645 9.21638 12.2885 9.40351 11.5088 9.59064C7.6413 10.5575 5.7076 12.0234 5.7076 13.9883C5.7076 15.4854 6.42495 16.9512 7.85965 18.386C9.23194 19.6336 10.6822 20.4757 12.2105 20.9123C12.3977 20.9435 12.4912 20.9903 12.4912 21.0526C12.4912 21.1774 12.3664 21.2398 12.117 21.2398C10.308 21.2398 8.65497 20.4912 7.15789 18.9942C5.66082 17.4347 4.91228 15.7661 4.91228 13.9883C4.91228 12.0234 6.39376 10.3548 9.35673 8.98246C11.54 7.98443 14.5653 7.1579 18.4328 6.50292L26.0117 5.38012C26.1053 4.44445 26.152 2.86939 26.152 0.654971C26.152 0.405454 26.2612 0.280703 26.4795 0.280703C26.5107 0.280703 26.5575 0.35867 26.6199 0.514621C26.7135 1.26316 26.7602 2.15205 26.7602 3.18129C26.7602 3.52436 26.7447 3.88304 26.7134 4.25731C26.7134 4.60039 26.6979 4.94347 26.6667 5.28655C26.9786 5.22417 27.2593 5.16179 27.5088 5.09942C27.7583 5.03703 27.9766 4.97466 28.1637 4.91228C28.3509 4.66276 28.5692 4.53801 28.8187 4.53801C29.1306 4.53801 29.3333 4.72515 29.4269 5.09942C29.5205 5.59844 29.5673 6.40936 29.5673 7.53216C29.5673 12.3664 28.0857 17.5283 25.1228 23.0175C22.3158 28.2261 18.9318 32.4366 14.9708 35.6491C11.384 38.5497 7.75051 40 4.07018 40ZM63.0614 17.4971C62.4377 17.4971 62.1257 17.1696 62.1257 16.5146C62.1257 16.2027 62.3129 15.8284 62.6871 15.3918C63.0926 14.924 63.4512 14.6121 63.7632 14.4561C64.886 13.926 65.5565 13.6608 65.7749 13.6608C65.8684 13.6608 65.9152 13.692 65.9152 13.7544C65.9152 13.848 65.5565 14.3002 64.8392 15.1111C64.7768 15.1735 64.5429 15.6569 64.1374 16.5614C63.7944 17.1852 63.4357 17.4971 63.0614 17.4971ZM60.2544 32.5146C58.6637 32.5146 57.8684 31.7193 57.8684 30.1287C57.8684 28.9435 58.1803 27.4464 58.8041 25.6374L57.962 26.9474C57.5565 27.6336 57.2758 27.9766 57.1199 27.9766C57.0575 27.9766 57.0263 27.9298 57.0263 27.8363C57.0263 27.5868 57.1199 27.3529 57.307 27.1345C58.0556 26.1053 58.8821 24.6238 59.7866 22.6901C59.8801 22.4406 60.0049 22.1287 60.1608 21.7544C60.348 21.3801 60.5663 20.9591 60.8158 20.4912C60.9717 20.2105 61.3616 20.0702 61.9854 20.0702C62.5156 20.0702 62.7807 20.2261 62.7807 20.538C62.7807 20.8811 62.6248 21.3489 62.3129 21.9415C62.0322 22.5653 61.767 22.924 61.5175 23.0175C59.8957 26.2612 59.0848 28.6472 59.0848 30.1754C59.0848 31.2047 59.4279 31.7193 60.114 31.7193C61.2368 31.7193 62.4688 30.9084 63.8099 29.2866C65.2134 27.6647 65.8996 26.8538 65.8684 26.8538C65.9308 26.8538 65.962 26.9006 65.962 26.9942C65.962 27.0254 65.9308 27.1345 65.8684 27.3216C65.5877 27.8207 65.229 28.3353 64.7924 28.8655C64.3869 29.3645 63.9191 29.8947 63.3889 30.4561C62.0166 31.8284 60.9717 32.5146 60.2544 32.5146ZM65.1118 34.2456C64.8311 34.2456 64.6908 34.0429 64.6908 33.6374V33.5439C64.8156 33.1072 64.9403 32.5614 65.0651 31.9064C65.221 31.2515 65.3925 30.4874 65.5797 29.614C65.7668 28.7407 66.0007 27.6491 66.2814 26.3392C66.5621 24.998 66.9052 23.4542 67.3107 21.7076L66.7493 20.3509C66.5934 19.9454 66.4686 19.6491 66.375 19.462C66.3127 19.2749 66.2814 19.1813 66.2814 19.1813C66.2814 18.9629 66.5466 18.7602 67.0768 18.5731C68.6362 17.9805 69.6343 17.6842 70.0709 17.6842C70.5387 17.6842 70.7727 17.8246 70.7727 18.1053C70.7414 18.0117 69.9461 20.0078 68.3867 24.0936V24.5146C68.3867 25.3879 68.2464 25.8246 67.9656 25.8246C67.9344 25.8246 67.8876 25.7778 67.8253 25.6842C67.5758 26.464 67.3262 27.2125 67.0768 27.9298C66.8584 28.616 66.6557 29.3021 66.4686 29.9883C67.1548 28.8655 67.8565 27.7895 68.5738 26.7602C69.3224 25.731 70.0865 24.7641 70.8662 23.8596C73.2054 21.1462 75.1389 19.7895 76.6674 19.7895C77.3845 19.7895 77.7434 20.0702 77.7434 20.6316C77.7434 20.8187 77.6966 21.0526 77.6031 21.3333C77.3538 22.3938 77.0102 23.7349 76.5738 25.3567C76.1374 26.9474 75.6228 28.8031 75.03 30.924C76.8392 29.5828 78.2427 28.1482 79.2405 26.6199C79.3962 26.4327 79.5059 26.3392 79.568 26.3392C79.6616 26.3392 79.7083 26.4015 79.7083 26.5263C79.7083 26.5887 79.6616 26.6979 79.568 26.8538C78.1959 29.2866 76.527 31.2202 74.5621 32.655C74.4371 32.8421 74.2347 32.9357 73.954 32.9357C73.7354 32.9357 73.6265 32.8109 73.6265 32.5614C73.6265 32.4991 73.6732 32.2183 73.7668 31.7193C73.8604 31.1891 73.9854 30.4561 74.1411 29.5205C74.2968 28.8343 74.4371 28.1637 74.5621 27.5088C74.6871 26.8538 74.8114 26.1833 74.9364 25.4971C75.155 23.9688 75.2953 22.6277 75.3575 21.4737C74.6711 21.7856 73.9225 22.3002 73.1118 23.0175C72.3321 23.7037 71.4589 24.577 70.492 25.6374C69.6186 26.6043 68.8545 27.5243 68.1996 28.3977C67.5758 29.2398 67.0612 30.0351 66.6557 30.7836C66.2191 31.6257 65.8916 32.5302 65.6732 33.4971C65.5485 33.9961 65.3613 34.2456 65.1118 34.2456ZM67.5914 20.4444L68.0124 18.9006C67.8565 19.0254 67.5602 19.1813 67.1235 19.3684L67.5914 20.4444ZM88.8355 23.8129C88.4298 23.8129 88.2273 23.5789 88.2273 23.1111C88.2273 22.924 88.3209 22.5029 88.508 21.848C88.7259 21.193 88.8355 20.6472 88.8355 20.2105C88.8355 18.807 88.2741 18.1053 87.1513 18.1053C86.5585 18.1053 85.8414 18.3392 84.9993 18.807C84.1257 19.2436 83.6732 19.462 83.6425 19.462C83.5175 19.462 83.4554 19.4152 83.4554 19.3216C83.4554 18.885 84.0636 18.4795 85.28 18.1053C86.2156 17.7934 87.011 17.6374 87.6659 17.6374C89.3502 17.6374 90.1923 18.6511 90.1923 20.6784C90.1923 21.2398 90.0826 21.848 89.8648 22.5029C89.5526 23.3762 89.2098 23.8129 88.8355 23.8129ZM81.6301 34.5731C79.4781 34.5731 78.4021 33.3567 78.4021 30.924C78.4021 28.4912 79.1981 25.9961 80.7887 23.4386C82.6287 20.538 84.6718 19.0877 86.9174 19.0877C87.2602 19.0877 87.432 19.1501 87.432 19.2749C87.432 19.3684 87.1199 19.6023 86.4963 19.9766C84.9678 20.9123 83.6111 22.3314 82.4262 24.2339C81.1469 26.2612 80.508 28.0857 80.508 29.7076C80.508 32.2339 81.4591 33.4971 83.3618 33.4971C84.5468 33.4971 85.8567 33.0292 87.2917 32.0936C87.9152 31.6881 88.492 31.267 89.0227 30.8304C89.5841 30.3626 90.0826 29.8635 90.5197 29.3333C90.6754 29.1462 90.8626 28.9123 91.0811 28.6316C91.299 28.3509 91.5329 28.0078 91.7829 27.6023C92.0636 27.1345 92.2814 26.9006 92.4379 26.9006C92.4379 26.9006 92.4686 26.9318 92.5314 26.9942C92.5314 27.0877 92.3911 27.3529 92.1104 27.7895C91.5797 28.6004 90.9408 29.3957 90.1923 30.1754C89.4437 30.924 88.5702 31.6413 87.5724 32.3275C85.3889 33.8246 83.4086 34.5731 81.6301 34.5731ZM92.4013 35.1813C92.0271 35.1813 91.8713 35.0565 91.9335 34.807C91.8399 34.6199 91.6213 34.2144 91.2785 33.5906C90.9042 33.0605 90.7171 32.733 90.7171 32.6082C90.7171 32.3587 90.826 32.2183 91.0446 32.1871C91.3567 32 91.6842 31.7661 92.0271 31.4854C92.3699 31.2047 92.7442 30.8928 93.1499 30.5497C95.1148 24.8109 98.3743 16.9357 102.928 6.92398C103.053 6.61208 103.208 6.23781 103.395 5.80117C103.614 5.36453 103.863 4.84991 104.144 4.25731C104.58 3.53996 105.407 3.18129 106.624 3.18129C107.091 3.18129 107.325 3.29045 107.325 3.50877C107.325 3.57115 107.294 3.63352 107.232 3.69591L104.518 8.79532C102.366 12.8499 100.542 16.4991 99.0446 19.7427C97.5475 22.9863 96.3626 25.8401 95.489 28.3041C97.2354 26.5575 98.6703 24.998 99.7931 23.6257C100.947 22.2222 101.82 20.9903 102.413 19.9298C102.475 19.7739 102.585 19.5556 102.74 19.2749C102.928 18.9629 103.24 18.807 103.676 18.807C104.05 18.807 104.238 18.9318 104.238 19.1813C104.238 19.3372 104.206 19.5556 104.144 19.8363C104.113 20.117 104.066 20.4757 104.004 20.9123C103.942 21.3178 103.895 21.6764 103.863 21.9883C103.832 22.269 103.817 22.5185 103.817 22.7368C103.817 24.6394 104.097 26.5575 104.659 28.4912C105.469 31.1735 106.577 32.5146 107.98 32.5146C108.261 32.5146 108.573 32.4366 108.916 32.2807C109.259 32.1248 109.477 32.0468 109.571 32.0468C109.82 32.0468 109.945 32.1716 109.945 32.4211C109.945 32.733 109.633 33.0137 109.01 33.2632C108.355 33.5126 107.855 33.6374 107.512 33.6374C105.953 33.6374 104.534 32.3743 103.255 29.848C102.164 27.5711 101.618 25.4503 101.618 23.4854C101.618 23.3295 101.618 23.1891 101.618 23.0643C101.618 22.9395 101.633 22.8148 101.664 22.6901C101.103 23.501 100.261 24.4991 99.1382 25.6842C98.0154 26.8694 96.6272 28.2417 94.9744 29.8012C94.8187 30.3314 94.6623 30.846 94.5066 31.345C94.3816 31.8441 94.2727 32.3119 94.1791 32.7485L93.9452 33.9181C93.758 34.7602 93.2434 35.1813 92.4013 35.1813ZM92.1674 33.731C92.2295 33.4815 92.2924 33.2008 92.3545 32.8889C92.4481 32.577 92.557 32.2651 92.682 31.9532L91.6996 32.7485C91.8553 32.9669 92.0117 33.2944 92.1674 33.731ZM113.423 34.1521C111.208 34.1521 110.101 32.7173 110.101 29.848C110.101 29.4113 110.116 28.9435 110.148 28.4444C110.21 27.9143 110.303 27.3529 110.428 26.7602C110.303 26.6667 110.179 26.5419 110.054 26.386C109.929 26.1988 109.805 25.9805 109.68 25.731C109.805 25.7622 109.929 25.8246 110.054 25.9181C110.21 25.9805 110.397 26.0429 110.616 26.1053C110.958 24.5458 111.894 23.002 113.423 21.4737C115.075 19.7895 116.635 18.9474 118.101 18.9474C118.444 18.9474 118.616 18.9942 118.616 19.0877C118.616 19.1501 118.397 19.3061 117.961 19.5556C116.806 20.1793 115.715 21.1462 114.686 22.4561C113.656 23.7973 112.908 25.1072 112.44 26.386L112.534 26.4795C114.031 26.4795 115.59 25.7622 117.212 24.3275C118.834 22.8928 119.645 21.4269 119.645 19.9298C119.645 19.462 119.52 19.0409 119.27 18.6667C119.021 18.2924 118.678 18.1053 118.241 18.1053C117.618 18.1053 116.916 18.3548 116.136 18.8538C115.356 19.3216 114.92 19.5556 114.826 19.5556C114.764 19.5556 114.732 19.54 114.732 19.5088C114.732 19.1345 115.279 18.729 116.37 18.2924C117.306 17.9181 118.039 17.731 118.569 17.731C119.286 17.731 119.879 17.9337 120.346 18.3392C120.846 18.7447 121.095 19.3061 121.095 20.0234C121.095 21.6764 120.019 23.2827 117.867 24.8421C115.933 26.2144 114.062 26.9786 112.253 27.1345C112.004 27.883 111.879 28.6004 111.879 29.2866C111.879 31.8752 112.814 33.1696 114.686 33.1696C116.121 33.1696 117.618 32.5458 119.177 31.2982C120.487 30.269 121.578 29.0214 122.452 27.5556C122.732 27.1189 122.966 26.9006 123.154 26.9006C123.185 26.9006 123.2 26.9318 123.2 26.9942C123.2 27.1189 123.075 27.3996 122.826 27.8363C121.859 29.3645 120.502 30.7681 118.756 32.0468C116.853 33.4503 115.075 34.1521 113.423 34.1521ZM126.471 33.2632C124.912 33.2632 124.132 32.4678 124.132 30.8772C124.132 29.1618 124.928 26.152 126.518 21.848C125.738 22.9084 125.193 23.4386 124.881 23.4386C124.787 23.4386 124.741 23.3918 124.741 23.2982C124.741 23.267 125.146 22.7213 125.957 21.6608C126.363 21.1306 126.674 20.7251 126.893 20.4444C127.142 20.1325 127.282 19.9298 127.314 19.8363C127.469 19.3996 127.688 18.8382 127.969 18.152C128.249 17.4659 128.577 16.6862 128.951 15.8129C129.637 14.2534 130.339 12.6939 131.056 11.1345C131.773 9.54386 132.522 7.95322 133.302 6.36257C133.551 5.83236 133.863 5.19298 134.238 4.44445C134.643 3.69591 135.111 2.8382 135.641 1.87135C135.984 1.34113 136.624 1.07602 137.559 1.07602C138.121 1.07602 138.401 1.21638 138.401 1.49708C138.401 1.59064 138.386 1.66861 138.355 1.73099L135.828 7.34503L134.799 9.59064C134.58 9.71542 134.3 9.94934 133.957 10.2924C133.957 10.2924 133.785 10.6199 133.442 11.2749C133.13 11.9298 132.632 12.8967 131.945 14.1754C127.548 22.7213 125.349 28.3041 125.349 30.924C125.349 31.9532 125.692 32.4678 126.378 32.4678C127.158 32.4678 128.077 32.0312 129.138 31.1579C130.23 30.2534 130.744 29.8012 130.682 29.8012C130.807 29.8012 130.869 29.8635 130.869 29.9883C130.869 30.1131 130.807 30.2378 130.682 30.3626C129.31 32.2963 127.906 33.2632 126.471 33.2632ZM136.207 17.4971C135.583 17.4971 135.271 17.1696 135.271 16.5146C135.271 16.2027 135.458 15.8284 135.833 15.3918C136.238 14.924 136.596 14.6121 136.909 14.4561C138.031 13.926 138.702 13.6608 138.92 13.6608C139.014 13.6608 139.061 13.692 139.061 13.7544C139.061 13.848 138.702 14.3002 137.985 15.1111C137.922 15.1735 137.688 15.6569 137.283 16.5614C136.939 17.1852 136.581 17.4971 136.207 17.4971ZM133.4 32.5146C131.809 32.5146 131.014 31.7193 131.014 30.1287C131.014 28.9435 131.325 27.4464 131.95 25.6374L131.107 26.9474C130.702 27.6336 130.421 27.9766 130.265 27.9766C130.202 27.9766 130.172 27.9298 130.172 27.8363C130.172 27.5868 130.265 27.3529 130.452 27.1345C131.201 26.1053 132.027 24.6238 132.932 22.6901C133.026 22.4406 133.15 22.1287 133.306 21.7544C133.493 21.3801 133.711 20.9591 133.961 20.4912C134.117 20.2105 134.507 20.0702 135.131 20.0702C135.661 20.0702 135.925 20.2261 135.925 20.538C135.925 20.8811 135.77 21.3489 135.458 21.9415C135.178 22.5653 134.912 22.924 134.663 23.0175C133.041 26.2612 132.23 28.6472 132.23 30.1754C132.23 31.2047 132.573 31.7193 133.26 31.7193C134.382 31.7193 135.614 30.9084 136.955 29.2866C138.359 27.6647 139.045 26.8538 139.014 26.8538C139.076 26.8538 139.107 26.9006 139.107 26.9942C139.107 27.0254 139.076 27.1345 139.014 27.3216C138.733 27.8207 138.374 28.3353 137.938 28.8655C137.532 29.3645 137.064 29.8947 136.534 30.4561C135.162 31.8284 134.117 32.5146 133.4 32.5146ZM138.257 34.2456C137.976 34.2456 137.836 34.0429 137.836 33.6374V33.5439C137.961 33.1072 138.086 32.5614 138.211 31.9064C138.366 31.2515 138.538 30.4874 138.725 29.614C138.912 28.7407 139.146 27.6491 139.427 26.3392C139.708 24.998 140.05 23.4542 140.456 21.7076L139.895 20.3509C139.738 19.9454 139.614 19.6491 139.52 19.462C139.458 19.2749 139.427 19.1813 139.427 19.1813C139.427 18.9629 139.692 18.7602 140.222 18.5731C141.781 17.9805 142.779 17.6842 143.216 17.6842C143.684 17.6842 143.918 17.8246 143.918 18.1053C143.887 18.0117 143.091 20.0078 141.532 24.0936V24.5146C141.532 25.3879 141.392 25.8246 141.111 25.8246C141.08 25.8246 141.033 25.7778 140.971 25.6842C140.721 26.464 140.471 27.2125 140.222 27.9298C140.004 28.616 139.801 29.3021 139.614 29.9883C140.3 28.8655 141.001 27.7895 141.719 26.7602C142.468 25.731 143.232 24.7641 144.012 23.8596C146.351 21.1462 148.284 19.7895 149.813 19.7895C150.53 19.7895 150.889 20.0702 150.889 20.6316C150.889 20.8187 150.842 21.0526 150.749 21.3333C150.499 22.3938 150.156 23.7349 149.719 25.3567C149.282 26.9474 148.768 28.8031 148.175 30.924C149.984 29.5828 151.387 28.1482 152.386 26.6199C152.542 26.4327 152.651 26.3392 152.713 26.3392C152.807 26.3392 152.854 26.4015 152.854 26.5263C152.854 26.5887 152.807 26.6979 152.713 26.8538C151.341 29.2866 149.673 31.2202 147.708 32.655C147.583 32.8421 147.38 32.9357 147.099 32.9357C146.881 32.9357 146.772 32.8109 146.772 32.5614C146.772 32.4991 146.819 32.2183 146.912 31.7193C147.006 31.1891 147.13 30.4561 147.287 29.5205C147.442 28.8343 147.583 28.1637 147.708 27.5088C147.832 26.8538 147.957 26.1833 148.082 25.4971C148.3 23.9688 148.44 22.6277 148.503 21.4737C147.817 21.7856 147.068 22.3002 146.257 23.0175C145.477 23.7037 144.604 24.577 143.637 25.6374C142.764 26.6043 142 27.5243 141.345 28.3977C140.721 29.2398 140.206 30.0351 139.801 30.7836C139.364 31.6257 139.037 32.5302 138.819 33.4971C138.694 33.9961 138.507 34.2456 138.257 34.2456ZM140.737 20.4444L141.158 18.9006C141.001 19.0254 140.705 19.1813 140.269 19.3684L140.737 20.4444Z" fill="black"/>
</svg>
