<svg width="22" height="19" viewBox="0 0 22 19" fill="none" xmlns="http://www.w3.org/2000/svg">
<path d="M14.91 4.93166C18.7962 4.93166 21.9453 8.08025 21.9453 11.9654C21.9453 15.8506 18.7962 18.9997 14.91 18.9997C11.0248 18.9997 7.87573 15.8506 7.87573 11.9654C7.87573 11.8818 7.87827 11.7976 7.88283 11.7135L7.9979 11.5918L11.2291 11.5852L11.3741 11.716C11.3397 12.2015 11.4057 12.6888 11.5678 13.1477C11.73 13.6066 11.9849 14.0272 12.3166 14.3832C12.6483 14.7393 13.0498 15.0233 13.4961 15.2175C13.9424 15.4117 14.4238 15.5119 14.9105 15.512C15.3811 15.5199 15.8486 15.4341 16.2856 15.2595C16.7227 15.085 17.1206 14.8251 17.4563 14.4951C17.7919 14.1651 18.0584 13.7717 18.2403 13.3376C18.4223 12.9035 18.516 12.4376 18.516 11.9669C18.516 11.4963 18.4223 11.0304 18.2403 10.5963C18.0584 10.1622 17.7919 9.76875 17.4563 9.43877C17.1206 9.1088 16.7227 8.84895 16.2856 8.67436C15.8486 8.49978 15.3811 8.41397 14.9105 8.42193C14.0146 8.42189 13.1518 8.76105 12.4957 9.37123C11.8397 9.9814 11.4389 10.8173 11.3741 11.7109C11.3741 11.6795 11.2646 11.749 11.2616 11.4828C11.2489 10.397 11.22 7.56165 11.2144 6.07632C11.2144 6.06365 11.3513 5.91258 11.3513 5.89991C12.429 5.26336 13.6583 4.92889 14.91 4.93166Z" fill="#00E7E0"/>
<path d="M11.3741 11.7166C11.371 11.7192 11.371 11.7141 11.3741 11.7166L7.8833 11.7141C7.89243 11.4515 7.88837 11.3293 7.92538 11.0753C7.99128 10.6201 7.95072 10.1583 8.10281 9.7274C8.41913 8.83063 8.80339 7.93943 9.43098 7.23833C9.90396 6.70858 10.6162 6.15551 11.2114 5.79863C11.2418 5.77987 11.3209 5.91826 11.3508 5.90052C11.3584 7.73462 11.3741 11.5559 11.3741 11.7166Z" fill="#E4BFFD"/>
<path d="M11.3483 4.932C11.3483 4.94721 11.3509 5.32691 11.3509 5.90026C10.329 6.49766 9.47511 7.34412 8.86878 8.36069C8.26245 9.37727 7.92345 10.5308 7.8834 11.7138H7.88036L7.87529 6.01482C7.87529 4.64153 6.63481 3.4923 5.33046 3.4923L0 3.48469V0H6.47918C8.79031 0 11.3483 2.02775 11.3483 4.932Z" fill="#806CDC"/>
</svg>
